<svg class="_a6en" viewBox="0 0 38 38" fill="none" xmlns="http://www.w3.org/2000/svg"><g opacity="0.4"><path fill-rule="evenodd" clip-rule="evenodd" d="M19 37C28.9411 37 37 28.9411 37 19C37 9.05887 28.9411 1 19 1C9.05887 1 1 9.05887 1 19C1 28.9411 9.05887 37 19 37Z" stroke="#FFFFFF"></path></g><path fill-rule="evenodd" clip-rule="evenodd" class="_a7uf" d="M15.7031 13.9589C15.7031 13.1798 16.5801 12.7232 17.2183 13.17L24.5761 18.3205C25.1238 18.7038 25.1238 19.5149 24.5761 19.8983L17.2183 25.0487C16.5801 25.4955 15.7031 25.0389 15.7031 24.2599V13.9589Z" fill="#FFFFFF"></path><path fill-rule="evenodd" clip-rule="evenodd" class="_a7ug" d="M15.7031 13.9589C15.7031 13.1798 16.5801 12.7232 17.2183 13.17L24.5761 18.3205C25.1238 18.7038 25.1238 19.5149 24.5761 19.8983L17.2183 25.0487C16.5801 25.4955 15.7031 25.0389 15.7031 24.2599V13.9589Z" fill="#FFFFFF"></path></svg>