<svg width="24" height="24" viewBox="0 0 24 24" fill="none" xmlns="http://www.w3.org/2000/svg" style="display: block;"><g opacity="0.5"><title>Pause</title><path d="M23.5 12C23.5 18.3513 18.3513 23.5 12 23.5C5.64873 23.5 0.5 18.3513 0.5 12C0.5 5.64873 5.64873 0.5 12 0.5C18.3513 0.5 23.5 5.64873 23.5 12Z" stroke="#1C2B33"></path></g><path d="M9.91667 8.66602C9.68655 8.66602 9.5 8.85256 9.5 9.08268V14.916C9.5 15.1462 9.68655 15.3327 9.91667 15.3327H11.0833C11.3134 15.3327 11.5 15.1462 11.5 14.916V9.08268C11.5 8.85256 11.3134 8.66602 11.0833 8.66602H9.91667Z" fill="#1C2B33"></path><path d="M12.9172 8.66602C12.687 8.66602 12.5005 8.85256 12.5005 9.08268V14.916C12.5005 15.1462 12.687 15.3327 12.9172 15.3327H14.0838C14.3139 15.3327 14.5005 15.1462 14.5005 14.916V9.08268C14.5005 8.85256 14.3139 8.66602 14.0838 8.66602H12.9172Z" fill="#1C2B33"></path></svg>