<svg width="24" height="24" viewBox="0 0 24 24" fill="none" xmlns="http://www.w3.org/2000/svg" style="display: none;"><g opacity="0.5"><title>Play</title><path d="M23.5 12C23.5 18.3513 18.3513 23.5 12 23.5C5.64873 23.5 0.5 18.3513 0.5 12C0.5 5.64873 5.64873 0.5 12 0.5C18.3513 0.5 23.5 5.64873 23.5 12Z" stroke="#1C2B33"></path></g><g clip-path="url(#clip0_1552_66730)"><mask id="mask0_1552_66730" maskUnits="userSpaceOnUse" x="7" y="7" width="11" height="10" style="mask-type: luminance;"><path d="M17.9985 7H7.99854V17H17.9985V7Z" fill="white"></path></mask><g mask="url(#mask0_1552_66730)"><path d="M16.125 10.9174C16.9583 11.3985 16.9583 12.6013 16.125 13.0825L11.125 15.9692C10.2917 16.4503 9.25 15.849 9.25 14.8867V9.11319C9.25 8.15094 10.2917 7.54954 11.125 8.03066L16.125 10.9174Z" fill="#1C2B33"></path></g></g><defs><clipPath id="clip0_1552_66730"><rect width="10" height="10" fill="white" transform="translate(8 7)"></rect></clipPath></defs></svg>